# xmcd CD database file
#
# Track frame offsets:
#	150
#	21147
#	42130
#	64395
#	85442
#	94242
#	117960
#	123475
#	141565
#	159605
#	179297
#	196950
#	212290
#	232127
#	241862
#
# Disc length: 3486 seconds
#
# Revision: 2
# Processed by: cddbd v1.4PL0 Copyright (c) Steve Scherf et al.
# Submitted via: CDex 1.40Beta9
#
DISCID=d60d9c0f
DTITLE=Shai - Blackface
DYEAR=1995
DGENRE=R&B
TTITLE0=Come with Me
TTITLE1=During the Storm
TTITLE2=I Don't Wanna Be Alone
TTITLE3=Mr. Turn U Out
TTITLE4=Concert A (The Hidden One)
TTITLE5=Falling
TTITLE6=Planet Solitude
TTITLE7=Did You Know
TTITLE8=To Get to Know You
TTITLE9=Let's Go Back
TTITLE10=Will I Find Someone
TTITLE11=95
TTITLE12=The Place Where You Belong
TTITLE13=If I Gave (A Confession)
TTITLE14=Come with Me (A Cappella)
EXTD=YEAR: 1995 ID3G: 14
EXTT0=
EXTT1=
EXTT2=
EXTT3=
EXTT4=
EXTT5=
EXTT6=
EXTT7=
EXTT8=
EXTT9=
EXTT10=
EXTT11=
EXTT12=
EXTT13=
EXTT14=
PLAYORDER=
